<?xml version="1.0" encoding="utf-8"?>
<!-- Generator: Adobe Illustrator 27.2.0, SVG Export Plug-In . SVG Version: 6.00 Build 0)  -->
<svg version="1.1" id="Layer_1" xmlns="http://www.w3.org/2000/svg" xmlns:xlink="http://www.w3.org/1999/xlink" x="0px" y="0px"
	 viewBox="0 0 500.44 512.04" style="enable-background:new 0 0 500.44 512.04;" xml:space="preserve">
<style type="text/css">
	.st0{display:none;fill:#FFFFFF;}
</style>
<g>
	<path class="st0" d="M-5.33,512c0-170.64,0-341.29,0-512c170.62,0,341.24,0,512,0c0,170.62,0,341.31,0,512
		C336.02,512,165.35,512-5.33,512z M250.73,415.96c37.18,0,74.35,0,111.53,0c26.84,0,53.68,0.1,80.52-0.04
		c18.57-0.1,32.84-15.32,31.95-33.71c-0.84-17.35-15.02-30.2-33.46-30.2C314.23,352,187.2,352,60.16,352.01
		c-1.17,0-2.34-0.02-3.5,0.05c-16.16,0.89-29.45,14.52-29.95,30.68c-0.58,18.66,13.76,33.2,32.97,33.21
		C123.36,415.99,187.05,415.96,250.73,415.96z M251.18,95.97c-43.51,0-87.02,0-130.53,0c-20.67,0-41.34-0.15-62.01,0.05
		c-21.05,0.19-35.83,19.29-30.96,39.64c3.45,14.43,16.28,24.25,32.07,24.25c127.36,0.03,254.72,0.02,382.07,0.02
		c0.83,0,1.67,0.02,2.5-0.04c9.08-0.62,16.85-4.14,22.65-11.17c8.51-10.31,10.39-21.93,4.74-34.09
		c-5.73-12.33-15.9-18.6-29.49-18.62C378.54,95.92,314.86,95.97,251.18,95.97z M250.69,223.99c-43.18,0-86.35,0-129.53,0
		c-20.84,0-41.68-0.13-62.51,0.04c-18.61,0.15-32.77,15.28-31.91,33.73c0.79,17.11,14.96,30.16,33,30.16
		c127.36,0.03,254.72,0.01,382.09,0.01c0.83,0,1.67,0.02,2.5-0.04c9.08-0.62,16.85-4.13,22.65-11.16
		c8.51-10.31,10.4-21.92,4.75-34.09c-5.72-12.33-15.9-18.61-29.49-18.63C378.38,223.94,314.54,223.99,250.69,223.99z"/>
	<path d="M250.73,415.96c-63.68,0-127.37,0.03-191.05-0.02c-19.21-0.01-33.54-14.55-32.97-33.21c0.5-16.16,13.79-29.78,29.95-30.68
		c1.16-0.06,2.33-0.05,3.5-0.05c127.03,0,254.07-0.01,381.1,0.01c18.45,0,32.63,12.85,33.46,30.2
		c0.89,18.39-13.37,33.61-31.95,33.71c-26.84,0.14-53.68,0.04-80.52,0.04C325.08,415.96,287.91,415.96,250.73,415.96z"/>
	<path d="M251.18,95.97c63.68,0,127.36-0.05,191.04,0.04c13.59,0.02,23.77,6.29,29.49,18.62c5.65,12.16,3.77,23.78-4.74,34.09
		c-5.8,7.03-13.57,10.55-22.65,11.17c-0.83,0.06-1.67,0.04-2.5,0.04c-127.36,0-254.72,0.01-382.07-0.02
		c-15.79,0-28.62-9.82-32.07-24.25c-4.87-20.35,9.91-39.45,30.96-39.64c20.67-0.19,41.34-0.05,62.01-0.05
		C164.17,95.97,207.68,95.97,251.18,95.97z"/>
	<path d="M250.69,223.99c63.85,0,127.7-0.05,191.54,0.04c13.59,0.02,23.77,6.29,29.49,18.63c5.65,12.17,3.76,23.78-4.75,34.09
		c-5.81,7.03-13.57,10.55-22.65,11.16c-0.83,0.06-1.67,0.04-2.5,0.04c-127.36,0-254.72,0.01-382.09-0.01
		c-18.03,0-32.2-13.05-33-30.16c-0.85-18.45,13.3-33.58,31.91-33.73c20.84-0.17,41.68-0.04,62.51-0.04
		C164.33,223.99,207.51,223.99,250.69,223.99z"/>
</g>
</svg>
